# xmcd
#
# Track frame offsets: 
#        150
#        14977
#        27572
#        31415
#        43517
#        63232
#        82452
#        97605
#        107220
#        128747
#        147807
#        173165
#        184662
#        199292
#        214907
#
# Disc length: 3103 seconds
#
# Revision: 14
# Processed by: cddbd v1.5.2PL0 Copyright (c) Steve Scherf et al.
# Submitted via: ExactAudioCopy v1.3
#
DISCID=da0c1d0f
DTITLE=Blues Brothers And Friends - Live From Chicago's House Of Blues
DYEAR=1997
DGENRE=Blues
TTITLE0=Intro
TTITLE1=Green Onions (Blues Brothers Band, Paul Shaffer)
TTITLE2=Chicken Shack (Blues Brothers Band, Paul Shaffer)
TTITLE3=Sweet Home Chicago (Elwood Blues, Brother Zee Blues, Paul Shaf
TTITLE3=fer, Blues Brothers Band)
TTITLE4=I Wish You Would (Billy Boy Arnold and Blues Brothers Band)
TTITLE5=Messin' With The Kid  (Elwood Blues, Brother Zee Blues, Paul S
TTITLE5=haffer, Blues Brothers Band, Sergei Varonov)
TTITLE6=All My Money Back (Lonnie Brooks and  Blues Brothers Band)
TTITLE7=Born In Chicago ( (Elwood Blues, Charlie Musselwhite, Brother 
TTITLE7=Zee Blues, Paul Shaffer, Blues Brothers Band)
TTITLE8=Blues, Why You Worry Me (Charlie Musselwhite and Blues Brothers 
TTITLE8=Band)
TTITLE9=Groove With Me Tonight (Sly Johnson and Blues Brothers Band)
TTITLE10=634-5789 (Eddie Floyd and Blues Brothers Band)
TTITLE11=All She Wants To Do Is Rock (Elwood Blues, Brother Zee Blues,
TTITLE11=Paul Shaffer, Blues Brothers Band, Tommy "Pipes" McDonnell)
TTITLE12=Flip  Flop And Fly ((Elwood Blues, Brother Zee Blues, Paul Sh
TTITLE12=affer, Blues Brothers Band)
TTITLE13=Money (That's What I Want) (Elwood Blues, Jeff Baxter, Sam Mo
TTITLE13=ore, Brother Zee Blues, Paul Shaffer, Tommy "Pipes" McDonnell
TTITLE13=, Blues Brothers Band)
TTITLE14=Viva Las Vegas (Elwood Blues, Brother Zee Blues, Sam Moore,  
TTITLE14=Paul Shaffer, Blues Brothers Band, Jeff Baxter, Tommy "Pipes"
TTITLE14=McDonnell )
EXTD=YEAR: 1997
EXTT0=
EXTT1=
EXTT2=
EXTT3=
EXTT4=
EXTT5=
EXTT6=
EXTT7=
EXTT8=
EXTT9=
EXTT10=
EXTT11=
EXTT12=
EXTT13=
EXTT14=
PLAYORDER=
